<svg xmlns="http://www.w3.org/2000/svg" xmlns:xlink="http://www.w3.org/1999/xlink" width="1762" height="1130" viewBox="0 0 1762 1130"><defs><path id="a" d="m0 0h1762v1130h-1762z"/><linearGradient id="b" x1="50%" x2="50%" y1="0%" y2="100%"><stop offset="0" stop-color="#fff"/><stop offset="1" stop-color="#fbf3f1"/></linearGradient><linearGradient id="c" x1="50%" x2="50%" y1="24.442%" y2="100%"><stop offset="0" stop-color="#d6fff7"/><stop offset="1" stop-color="#9af2db"/></linearGradient><mask id="d" fill="#fff"><use fill="#fff" fill-rule="evenodd" xlink:href="#a"/></mask></defs><g fill="none"><use fill="#fff" xlink:href="#a"/><path fill="url(#b)" d="m263.639886 1131.41166v-631.41166l1465.000004 903z" mask="url(#d)" opacity=".562" transform="matrix(-1 0 0 1 1992.279772 0)"/><path d="m1595.62635 375.114123-465.43951 276.106267-321.89279-182.73721-528.368269 233.50419" style="stroke-width:3;opacity:.3;stroke-linecap:round;stroke-linejoin:round;stroke-dasharray:20 1;stroke:url(#c);mask:url(#d)"/><path fill="#e5fff8" d="m1233.9284 481.920207 172.69309 100.492684 171.85325-101.261743-171.85325-99.723625z" mask="url(#d)"/><g fill="#b6e2d6" stroke="#fff" stroke-width="4" mask="url(#d)" opacity=".2"><g transform="translate(-384 449)"><ellipse cx="387.437" cy="103.827" rx="33.243" ry="17.383"/><ellipse cx="392.964" cy="194.039" rx="33.243" ry="17.383"/><ellipse cx="483.147" cy="153.097" rx="33.243" ry="17.383"/></g></g><g fill="#b6e2d6" stroke="#fff" stroke-width="4" mask="url(#d)" opacity=".2"><g transform="translate(686.62635 657.498001)"><ellipse cx="35.637" cy="103.827" rx="33.243" ry="17.383"/><ellipse cx="211.537" cy="200.337" rx="33.243" ry="17.383"/><ellipse cx="211.537" cy="19.921" rx="33.243" ry="17.383"/><ellipse cx="387.437" cy="103.827" rx="33.243" ry="17.383"/><ellipse cx="121.668" cy="145.715" rx="33.243" ry="17.383"/><ellipse cx="301.406" cy="145.711" rx="33.243" ry="17.383"/><ellipse cx="211.223" cy="103.832" rx="33.243" ry="17.383"/><ellipse cx="121.668" cy="62.89" rx="33.243" ry="17.383"/><ellipse cx="301.406" cy="62.89" rx="33.243" ry="17.383"/><ellipse cx="393.278" cy="290.544" rx="33.243" ry="17.383"/><ellipse cx="569.178" cy="194.034" rx="33.243" ry="17.383"/><ellipse cx="303.409" cy="235.922" rx="33.243" ry="17.383"/><ellipse cx="483.147" cy="235.918" rx="33.243" ry="17.383"/><ellipse cx="392.964" cy="194.039" rx="33.243" ry="17.383"/><ellipse cx="483.147" cy="153.097" rx="33.243" ry="17.383"/></g></g><ellipse cx="631.905" cy="544.774" fill="#c4fff0" mask="url(#d)" rx="31" ry="16"/></g></svg>