<svg xmlns="http://www.w3.org/2000/svg" xmlns:xlink="http://www.w3.org/1999/xlink" width="1280" height="600" viewBox="0 0 1280 600"><linearGradient id="a" x1="50%" x2="50%" y1="0%" y2="86.708%"><stop offset="0" stop-color="#1632b3"/><stop offset="1" stop-color="#cbcdf1"/></linearGradient><linearGradient id="b" x1="50%" x2="50%" y1="0%" y2="97.544%"><stop offset="0" stop-color="#9bdfd0"/><stop offset="1" stop-color="#9be9d7"/></linearGradient><linearGradient id="c" x1="63.264%" x2="9.59%" y1="45.805%" y2="53.158%"><stop offset="0" stop-color="#44a7fd"/><stop offset="1" stop-color="#7aabf1"/></linearGradient><linearGradient id="d" x1="50%" x2="50%" y1="0%" y2="100%"><stop offset="0" stop-color="#b0bcdf"/><stop offset="1" stop-color="#a7b1ea"/></linearGradient><linearGradient id="e" x1="50%" x2="50%" y1="2.09%" y2="100%"><stop offset="0" stop-color="#f6f8ff"/><stop offset="1" stop-color="#e6eaff"/></linearGradient><linearGradient id="f" x1="50%" x2="50%" y1="0%" y2="100%"><stop offset="0" stop-color="#2751d4"/><stop offset="1" stop-color="#1128a9"/></linearGradient><linearGradient id="g" x1="79.587%" x2="38.749%" y1="19.352%" y2="60.693%"><stop offset="0" stop-color="#bcf3e7"/><stop offset=".999" stop-color="#87e3cb"/><stop offset="1" stop-color="#87e3cb"/></linearGradient><linearGradient id="h" x1="50%" x2="50%" y1="0%" y2="100%"><stop offset="0" stop-color="#8eefdb"/><stop offset="1" stop-color="#38927b"/></linearGradient><g fill="none" fill-rule="nonzero"><g fill="url(#a)"><path d="m1216.60312 103.149163h12.67412v342.62359l-12.67412-12.674116z" opacity=".08" transform="matrix(-1 0 0 1 2445.880356 0)"/><path d="m1237.72665 103.149163h12.674116v327.414652h-12.674116z" opacity=".1" transform="matrix(-1 0 0 1 2488.127408 0)"/><path d="m1259.69511 103.149163h12.674116v327.414652h-12.674116z" opacity=".2" transform="matrix(-1 0 0 1 2532.064342 0)"/></g><path fill="url(#b)" d="m1213.67843 304.456364 86.38803 15.427362 15.42736 86.388033-86.38803-15.427362z" transform="matrix(-.70710678 -.70710678 -.70710678 .70710678 2410.063886 998.281148)"/><path fill="url(#c)" d="m1285.33177 420.649227 46.39457 50.32579-68.54617 50.588698-75.09381-24.953399 13.98867-59.127877z" transform="matrix(-.99939083 .0348995 .0348995 .99939083 2502.603816 -43.683112)"/><path fill="url(#d)" d="m1197.67213 420.370353 112.55536 20.100381 20.10038 112.555362-112.55536-20.10038z" opacity=".212" transform="matrix(-.70710678 -.70710678 -.70710678 .70710678 2501.930587 1036.333581)"/><path fill="url(#e)" d="m1197.67213 230.25862 112.55536 20.100381 20.10038 112.555362-112.55536-20.10038z" transform="matrix(-.70710678 -.70710678 -.70710678 .70710678 2367.501291 980.651144)"/><g fill="#83dac5" stroke="#eaedff" stroke-width="3" opacity=".521" transform="matrix(-1 0 0 1 1319.897162 256.799413)"><ellipse cx="33.382" cy="23.454" rx="9.914" ry="6.323"/><ellipse cx="54.928" cy="8.167" rx="9.914" ry="6.323"/><ellipse cx="32.96" cy="53.027" rx="9.914" ry="6.323"/><ellipse cx="54.928" cy="38.241" rx="9.914" ry="6.323"/><ellipse cx="76.474" cy="22.954" rx="9.914" ry="6.323"/><ellipse cx="54.928" cy="67.814" rx="9.914" ry="6.323"/><ellipse cx="76.897" cy="53.027" rx="9.914" ry="6.323"/><ellipse cx="98.02" cy="38.163" rx="9.914" ry="6.323"/></g><g><path fill="url(#f)" d="m33.3425712 94.8446313 86.3880328 15.4273617 15.427362 86.388033-86.3880328-15.427362z" transform="matrix(-1 0 0 1 1348.836392 19.5) matrix(.70710678 -.70710678 .70710678 .70710678 -78.386128 102.263805)"/><path fill="url(#g)" d="m33.3425712 32.7414652 86.3880328 15.427362 15.427362 86.3880328-86.3880328-15.427362z" transform="matrix(-1 0 0 1 1348.836392 19.5) matrix(.70710678 -.70710678 .70710678 .70710678 -34.472558 84.074209)"/><g fill="url(#h)" stroke-width="2" opacity=".521" transform="matrix(-1 0 0 1 1348.836392 19.5) translate(29.361701 46.610151)"><ellipse cx="32.96" cy="23.454" stroke="#a1ebd9" rx="10.414" ry="6.823"/><ellipse cx="54.506" cy="8.167" stroke="#aeefe0" rx="10.414" ry="6.823"/><ellipse cx="32.537" cy="53.027" stroke="#87e3cb" rx="10.414" ry="6.823"/><ellipse cx="54.506" cy="38.241" stroke="#95e7d3" rx="10.414" ry="6.823"/><ellipse cx="76.052" cy="22.954" stroke="#a1ebd9" rx="10.414" ry="6.823"/><ellipse cx="54.506" cy="67.814" stroke="#87e3cb" rx="10.414" ry="6.823"/><ellipse cx="76.474" cy="53.027" stroke="#88e4cc" rx="10.414" ry="6.823"/><ellipse cx="97.598" cy="38.163" stroke="#93e7d2" rx="10.414" ry="6.823"/></g><path fill="#1530b2" stroke="#1733b4" d="m88.3690173 117.932952 21.6272727-15.02287c-.626254-1.663878-1.299704-2.694269-2.02035-3.0911724-.720646-.3969031-2.189738-.5465396-4.407275-.4489092l-21.5459969 14.5226716c-1.2147131 3.108116-1.4482242 4.900175-.7005333 5.376178.747691.476003 3.0966518.030704 7.0468825-1.335898z" transform="matrix(-1 0 0 1 1348.836392 19.5)"/><path fill="#0593d3" stroke="#0d98d7" d="m88.433477 88.3600157 16.402599-11.2404559c9.455487 7.053121 14.662315 10.7999397 15.620485 11.2404559.735404.3381002 6.86071 1.9674004 7.811785.9354999 1.778447-1.9295846 1.555247-3.7053498-.669599-5.3272955-12.318252-8.7512613-18.837701-13.3253435-19.558347-13.7222467-.562858-.3099998-3.011682-.4915141-4.914413-.3172655-.3556.0325652-.536305.1383203-.542116.3172655l-20.4967432 14.0737622c-1.2147132 3.1081158-1.4482243 4.9001751-.7005333 5.3761781.7476909.4760029 3.0966518.0307036 7.0468825-1.335898z" transform="matrix(-1 0 0 1 1348.836392 19.5)"/></g></g></svg>