<svg xmlns="http://www.w3.org/2000/svg" xmlns:xlink="http://www.w3.org/1999/xlink" width="242pt" height="242pt" viewBox="0 0 242.1 242"><g id="graph0" class="graph" transform="scale(1 1) rotate(0) translate(4 238)"><title>G</title><polygon fill="#fff" stroke="transparent" points="-4 4 -4 -238 238.1 -238 238.1 4 -4 4"/><g id="clust3" class="cluster"><title>cluster0</title><polygon fill="none" stroke="#000" points="96.1 -53 96.1 -181 226.1 -181 226.1 -53 96.1 -53"/><text x="161.1" y="-165.8" font-family="Times,serif" font-size="14" text-anchor="middle">bookstore</text></g><g id="node1" class="node"><title>gh</title><polygon fill="none" stroke="#000" points="85.6 -150 6.6 -150 6.6 -114 85.6 -114 85.6 -150"/><text x="46.1" y="-128.3" font-family="Times,serif" font-size="14" text-anchor="middle">github.com</text></g><g id="node2" class="node"><title>bookbuyer</title><ellipse cx="48.1" cy="-216" fill="none" stroke="#000" rx="48.19" ry="18"/><text x="48.1" y="-212.3" font-family="Times,serif" font-size="14" text-anchor="middle">bookbuyer</text></g><g id="edge1" class="edge"><title>bookbuyer-&gt;gh</title><path fill="none" stroke="#000" d="M47.67,-197.61C47.41,-186.77 47.06,-172.6 46.76,-160.29"/><polygon fill="#000" stroke="#000" points="50.26 -160 46.51 -150.08 43.26 -160.17 50.26 -160"/></g><g id="node4" class="node"><title>b1</title><ellipse cx="161.1" cy="-132" fill="none" stroke="#000" rx="57.39" ry="18"/><text x="161.1" y="-128.3" font-family="Times,serif" font-size="14" text-anchor="middle">bookstore-v1</text></g><g id="edge3" class="edge"><title>bookbuyer-&gt;b1</title><path fill="none" stroke="#000" d="M69.16,-199.78C74.86,-195.66 81.18,-191.09 87.72,-186.35"/><polygon fill="#000" stroke="#000" points="90.06 -188.97 96.1 -180.27 85.95 -183.31 90.06 -188.97"/></g><g id="node3" class="node"><title>bookthief</title><ellipse cx="159.1" cy="-216" fill="none" stroke="#000" rx="44.39" ry="18"/><text x="159.1" y="-212.3" font-family="Times,serif" font-size="14" text-anchor="middle">bookthief</text></g><g id="edge2" class="edge"><title>bookthief-&gt;gh</title><path fill="none" stroke="#000" d="M129.49,-202.62C117.36,-196.89 103.52,-189.47 92.1,-181 83.2,-174.4 74.5,-166 67.11,-158.08"/><polygon fill="#000" stroke="#000" points="69.49 -155.49 60.2 -150.4 64.29 -160.17 69.49 -155.49"/></g><g id="edge4" class="edge"><title>bookthief-&gt;b1</title><path fill="none" stroke="#000" d="M159.52,-197.61C159.57,-195.58 159.62,-193.43 159.68,-191.2"/><polygon fill="#000" stroke="#000" points="163.18 -191.08 159.93 -181 156.18 -190.91 163.18 -191.08"/></g><g id="node5" class="node"><title>b2</title><ellipse cx="161.1" cy="-79" fill="none" stroke="#000" rx="57.39" ry="18"/><text x="161.1" y="-75.3" font-family="Times,serif" font-size="14" text-anchor="middle">bookstore-v2</text></g><g id="node6" class="node"><title>bookwarehouse</title><ellipse cx="161.1" cy="-18" fill="none" stroke="#000" rx="65.79" ry="18"/><text x="161.1" y="-14.3" font-family="Times,serif" font-size="14" text-anchor="middle">bookwarehouse</text></g><g id="edge6" class="edge"><title>b2-&gt;bookwarehouse</title><path fill="none" stroke="#000" d="M161.1,-53C161.1,-50.89 161.1,-48.74 161.1,-46.61"/><polygon fill="#000" stroke="#000" points="164.6 -46.23 161.1 -36.23 157.6 -46.23 164.6 -46.23"/></g></g></svg>